<svg xmlns="http://www.w3.org/2000/svg" viewBox="0 0 320 240" width="320" height="240" role="img" aria-label="Instruments de musique">
  <rect width="320" height="240" fill="#EDF5B3"/>
  <circle cx="44" cy="206" r="58" fill="#D9E77A" fill-opacity=".45"/>
  <circle cx="292" cy="30" r="44" fill="#FFFFFF" fill-opacity=".35"/>
  <circle cx="160" cy="120" r="78" fill="#FFFFFF" stroke="#2F4F5C" stroke-width="3"/>
  <ellipse cx="160" cy="176" rx="40" ry="6" fill="#D9E77A" fill-opacity=".7"/>
  <g transform="translate(112 72) scale(4)" fill="none" stroke="#2F4F5C" stroke-width="1.45" stroke-linecap="round" stroke-linejoin="round">
    <path d="m11.9 12.1 4.514-4.514" />
  <path d="M20.1 2.3a1 1 0 0 0-1.4 0l-1.114 1.114A2 2 0 0 0 17 4.828v1.344a2 2 0 0 1-.586 1.414A2 2 0 0 1 17.828 7h1.344a2 2 0 0 0 1.414-.586L21.7 5.3a1 1 0 0 0 0-1.4z" />
  <path d="m6 16 2 2" />
  <path d="M8.23 9.85A3 3 0 0 1 11 8a5 5 0 0 1 5 5 3 3 0 0 1-1.85 2.77l-.92.38A2 2 0 0 0 12 18a4 4 0 0 1-4 4 6 6 0 0 1-6-6 4 4 0 0 1 4-4 2 2 0 0 0 1.85-1.23z" />
  </g>
  <path d="M226 64 216.5 54.5a6.4 6.4 0 0 1 9.05-9.05L226 46l.45-.55a6.4 6.4 0 0 1 9.05 9.05z" fill="#9B4DDB" stroke="#2F4F5C" stroke-width="2.4" stroke-linejoin="round"/>
  <path d="M84 53Q84 62 93 62Q84 62 84 71Q84 62 75 62Q84 62 84 53Z" fill="#2F4F5C"/>
  <path d="M246 165Q246 172 253 172Q246 172 246 179Q246 172 239 172Q246 172 246 165Z" fill="#9B4DDB"/>
  <circle cx="96" cy="182" r="4" fill="#E23C8E" fill-opacity=".55"/>
  <circle cx="236" cy="96" r="3.4" fill="#2F4F5C"/>
</svg>
